<svg width="32" height="32" viewBox="0 0 32 32" fill="none" xmlns="http://www.w3.org/2000/svg">
<path fill-rule="evenodd" clip-rule="evenodd" d="M19.441 11.882C20.0585 11.5733 20.8093 11.8235 21.118 12.441L20 13C21.118 12.441 21.118 12.441 21.118 12.441L21.1191 12.4431L21.1205 12.446L21.1244 12.4539L21.1364 12.4785C21.1462 12.4987 21.1595 12.5265 21.1757 12.5613C21.2082 12.6308 21.2527 12.7289 21.3052 12.8514C21.4099 13.0958 21.548 13.4411 21.6859 13.8547C21.9567 14.6671 22.25 15.811 22.25 17C22.25 18.1891 21.9567 19.3329 21.6859 20.1453C21.548 20.559 21.4099 20.9043 21.3052 21.1487C21.2527 21.2712 21.2082 21.3692 21.1757 21.4388C21.1595 21.4736 21.1462 21.5013 21.1364 21.5215L21.1244 21.5461L21.1205 21.5541L21.1191 21.5569L21.1185 21.5581C21.1185 21.5581 21.118 21.559 20 21L21.118 21.559C20.8093 22.1765 20.0585 22.4268 19.441 22.1181C18.8241 21.8096 18.5737 21.06 18.881 20.4429L18.882 20.441L19.944 20.972C18.882 20.441 18.882 20.441 18.882 20.441L18.881 20.4429L18.886 20.4326C18.8909 20.4225 18.8991 20.4054 18.9102 20.3816C18.9325 20.334 18.9661 20.2601 19.0073 20.1639C19.0901 19.9708 19.202 19.6911 19.3141 19.3547C19.5433 18.6671 19.75 17.811 19.75 17C19.75 16.1891 19.5433 15.3329 19.3141 14.6453C19.202 14.309 19.0901 14.0293 19.0073 13.8362C18.9661 13.7399 18.9325 13.6661 18.9102 13.6185C18.8991 13.5947 18.8909 13.5775 18.886 13.5674L18.8813 13.5577L18.8818 13.5586C18.5733 12.9412 18.8236 12.1907 19.441 11.882ZM18.8813 13.5577V13.5577Z" fill="black"/>
<path fill-rule="evenodd" clip-rule="evenodd" d="M23.441 7.882C24.0585 7.57326 24.8093 7.82354 25.118 8.44101L24 9.00003C25.118 8.44101 25.118 8.44101 25.118 8.44101L25.1193 8.4435L25.1212 8.44746L25.1273 8.45974L25.1477 8.50148C25.1648 8.5368 25.1888 8.58701 25.2187 8.65111C25.2785 8.77926 25.362 8.96324 25.4614 9.19513C25.6599 9.6583 25.923 10.3161 26.1859 11.1047C26.7067 12.6671 27.25 14.811 27.25 17C27.25 19.1891 26.7067 21.3329 26.1859 22.8953C25.923 23.684 25.6599 24.3418 25.4614 24.8049C25.362 25.0368 25.2785 25.2208 25.2187 25.349C25.1888 25.413 25.1648 25.4633 25.1477 25.4986L25.1273 25.5403L25.1212 25.5526L25.1193 25.5566L25.1186 25.558C25.1186 25.558 25.118 25.559 24 25L25.118 25.559C24.8093 26.1765 24.0585 26.4268 23.441 26.1181C22.8238 25.8095 22.5735 25.0593 22.8815 24.442V24.442L22.882 24.441L22.8842 24.4366L22.8973 24.4097C22.9095 24.3845 22.9284 24.3448 22.9532 24.2917C23.0028 24.1855 23.0755 24.0257 23.1636 23.8201C23.3401 23.4083 23.577 22.8161 23.8141 22.1047C24.2933 20.6671 24.75 18.811 24.75 17C24.75 15.1891 24.2933 13.3329 23.8141 11.8953C23.577 11.184 23.3401 10.5918 23.1636 10.1799C23.0755 9.97432 23.0028 9.81455 22.9532 9.70832C22.9284 9.65524 22.9095 9.6156 22.8973 9.59038L22.8842 9.56351L22.882 9.55905C22.5735 8.94165 22.8236 8.19067 23.441 7.882Z" fill="black"/>
<path fill-rule="evenodd" clip-rule="evenodd" d="M13.5974 9.31676C15.0713 8.14182 17.25 9.19126 17.25 11.0761V22.0832C17.25 23.9018 15.2043 24.9691 13.7127 23.9286L9.81763 21.2116H6C4.75736 21.2116 3.75 20.2042 3.75 18.9616V14.6154C3.75 13.3728 4.75736 12.3654 6 12.3654H9.77325L13.5974 9.31676ZM14.75 11.5951L11.2633 14.3748C10.8648 14.6924 10.3703 14.8654 9.8607 14.8654H6.25V18.7116H9.89621C10.3566 18.7116 10.8059 18.8528 11.1835 19.1162L14.75 21.604V11.5951Z" fill="black"/>
</svg>
