<svg width="16" height="14" viewBox="0 0 16 14" fill="none" xmlns="http://www.w3.org/2000/svg">
<path d="M10.9768 9.31607L11.8101 8.48272C11.9404 8.35251 12.1669 8.44366 12.1669 8.63116V12.4177C12.1669 13.1078 11.607 13.6677 10.9169 13.6677H1.75003C1.05991 13.6677 0.5 13.1078 0.5 12.4177V3.25084C0.5 2.56072 1.05991 2.00081 1.75003 2.00081H8.87258C9.05748 2.00081 9.15123 2.22477 9.02102 2.35759L8.18767 3.19094C8.1486 3.23 8.09652 3.25084 8.03923 3.25084H1.75003V12.4177H10.9169V9.46191C10.9169 9.40722 10.9377 9.35514 10.9768 9.31607ZM15.055 4.06075L8.21631 10.8994L5.86209 11.1599C5.17979 11.2354 4.59905 10.6599 4.67457 9.97234L4.93499 7.61812L11.7737 0.779429C12.37 0.183062 13.3336 0.183062 13.9274 0.779429L15.0524 1.90445C15.6488 2.50082 15.6488 3.46699 15.055 4.06075ZM12.482 4.86546L10.969 3.3524L6.13033 8.19365L5.94022 9.89421L7.64078 9.7041L12.482 4.86546ZM14.1696 2.78989L13.0445 1.66486C12.9378 1.55809 12.7633 1.55809 12.6591 1.66486L11.8544 2.46957L13.3675 3.98262L14.1722 3.17792C14.2763 3.06854 14.2763 2.89666 14.1696 2.78989Z" fill="white"/>
</svg>
