<svg width="17" height="20" viewBox="0 0 17 20" fill="none" xmlns="http://www.w3.org/2000/svg">
<path d="M1 9C0.447715 9 0 9.44772 0 10C0 10.5523 0.447715 11 1 11V9ZM11 11H12V9H11V11ZM7.99929 4.62347C7.63354 4.20965 7.00157 4.17068 6.58775 4.53643C6.17393 4.90218 6.13497 5.53414 6.50071 5.94796L7.99929 4.62347ZM11.4167 10L12.166 10.6622L12.7513 10L12.166 9.33775L11.4167 10ZM6.50071 14.052C6.13497 14.4659 6.17393 15.0978 6.58775 15.4636C7.00157 15.8293 7.63354 15.7904 7.99929 15.3765L6.50071 14.052ZM3.33333 3.14286C3.33333 3.69514 3.78105 4.14286 4.33333 4.14286C4.88562 4.14286 5.33333 3.69514 5.33333 3.14286H3.33333ZM5.33333 16.8571C5.33333 16.3049 4.88562 15.8571 4.33333 15.8571C3.78105 15.8571 3.33333 16.3049 3.33333 16.8571H5.33333ZM1 11H11V9H1V11ZM5.33333 3.14286V2H3.33333V3.14286H5.33333ZM5.33333 2H15V0H5.33333V2ZM15 2V18H17V2H15ZM15 18H5.33333V20H15V18ZM5.33333 18V16.8571H3.33333V18H5.33333ZM10.6674 9.33775L8.58405 11.6949L10.0826 13.0194L12.166 10.6622L10.6674 9.33775ZM8.58405 11.6949L6.50071 14.052L7.99929 15.3765L10.0826 13.0194L8.58405 11.6949ZM6.50071 5.94796L8.58405 8.3051L10.0826 6.98061L7.99929 4.62347L6.50071 5.94796ZM8.58405 8.3051L10.6674 10.6622L12.166 9.33775L10.0826 6.98061L8.58405 8.3051ZM5.33333 18H5.33333H3.33333C3.33333 19.1046 4.22877 20 5.33333 20V18ZM15 18V20C16.1046 20 17 19.1046 17 18H15ZM15 2H15H17C17 0.89543 16.1046 0 15 0V2ZM5.33333 2L5.33333 2V0C4.22876 0 3.33333 0.895431 3.33333 2H5.33333Z" fill="#8C215C"/>
</svg>
