<svg width="32" height="32" viewBox="0 0 32 32" fill="none" xmlns="http://www.w3.org/2000/svg">
<path d="M26.8334 6H5.16675C3.78602 6 2.66675 7.11927 2.66675 8.5V23.5C2.66675 24.8807 3.78602 26 5.16675 26H26.8334C28.2141 26 29.3334 24.8807 29.3334 23.5V8.5C29.3334 7.11927 28.2141 6 26.8334 6ZM26.8334 8.5V10.6253C25.6656 11.5762 23.8038 13.055 19.8237 16.1716C18.9465 16.8616 17.209 18.5191 16.0001 18.4998C14.7913 18.5193 13.0532 16.8613 12.1765 16.1716C8.19696 13.0555 6.33471 11.5764 5.16675 10.6253V8.5H26.8334ZM5.16675 23.5V13.8332C6.36018 14.7838 8.05263 16.1177 10.6322 18.1377C11.7706 19.0338 13.7642 21.012 16.0001 20.9999C18.2249 21.012 20.1932 19.0625 21.3674 18.1381C23.947 16.1182 25.6399 14.7839 26.8334 13.8333V23.5H5.16675Z" fill="black"/>
</svg>
