<svg width="32" height="32" viewBox="0 0 32 32" fill="none" xmlns="http://www.w3.org/2000/svg">
<path d="M24.2475 2.75589V2.7531C23.7687 2.27132 23.1178 2.00028 22.4389 2H10.5584C9.14729 2.0046 8.0046 3.14827 8 4.56054V26.4367C8.00028 27.1162 8.27109 27.7676 8.75246 28.2469C9.23062 28.728 9.88038 28.999 10.5584 29H22.4416C23.1196 28.999 23.7694 28.728 24.2475 28.2469C24.7282 27.7683 24.999 27.118 25 26.4395V4.56333C24.999 3.88477 24.7282 3.23445 24.2475 2.75589ZM16.5 27.2623C16.1183 27.2623 15.8089 26.9526 15.8089 26.5706C15.8089 26.1885 16.1183 25.8788 16.5 25.8788C16.8817 25.8788 17.1911 26.1885 17.1911 26.5706C17.1911 26.9526 16.8817 27.2623 16.5 27.2623ZM22.9684 22.9194C22.9684 23.8437 22.2197 24.593 21.2962 24.593H11.701C10.7775 24.593 10.0289 23.8437 10.0289 22.9194V6.61622C10.0289 5.69193 10.7775 4.94267 11.701 4.94267H21.299C22.2225 4.94267 22.9711 5.69193 22.9711 6.61622L22.9684 22.9194Z" fill="black"/>
</svg>
