<svg width="32" height="32" viewBox="0 0 32 32" fill="none" xmlns="http://www.w3.org/2000/svg">
<path fill-rule="evenodd" clip-rule="evenodd" d="M21 8V13C21 15.7614 18.7614 18 16 18C13.2386 18 11 15.7614 11 13V8C11 5.23858 13.2386 3 16 3C18.7614 3 21 5.23858 21 8ZM10 8C10 4.68629 12.6863 2 16 2C19.3137 2 22 4.68629 22 8V13C22 16.3137 19.3137 19 16 19C12.6863 19 10 16.3137 10 13V8ZM7 13.5C7.27614 13.5 7.5 13.7239 7.5 14C7.5 18.0884 11.2486 21.5 16 21.5C20.7514 21.5 24.5 18.0884 24.5 14C24.5 13.7239 24.7239 13.5 25 13.5C25.2761 13.5 25.5 13.7239 25.5 14C25.5 18.5948 21.4637 22.2566 16.5 22.4883V27C16.5 27.2761 16.2761 27.5 16 27.5C15.7239 27.5 15.5 27.2761 15.5 27V22.4883C10.5363 22.2566 6.5 18.5948 6.5 14C6.5 13.7239 6.72386 13.5 7 13.5ZM16 27.5H24C24.2761 27.5 24.5 27.7239 24.5 28C24.5 28.2761 24.2761 28.5 24 28.5H8C7.72386 28.5 7.5 28.2761 7.5 28C7.5 27.7239 7.72386 27.5 8 27.5H16Z" fill="black"/>
<path d="M16.5 22.4883L16.465 21.7392L15.75 21.7726V22.4883H16.5ZM15.5 22.4883H16.25V21.7726L15.535 21.7392L15.5 22.4883ZM21.75 13V8H20.25V13H21.75ZM16 18.75C19.1756 18.75 21.75 16.1756 21.75 13H20.25C20.25 15.3472 18.3472 17.25 16 17.25V18.75ZM10.25 13C10.25 16.1756 12.8244 18.75 16 18.75V17.25C13.6528 17.25 11.75 15.3472 11.75 13H10.25ZM10.25 8V13H11.75V8H10.25ZM16 2.25C12.8244 2.25 10.25 4.82436 10.25 8H11.75C11.75 5.65279 13.6528 3.75 16 3.75V2.25ZM21.75 8C21.75 4.82436 19.1756 2.25 16 2.25V3.75C18.3472 3.75 20.25 5.65279 20.25 8H21.75ZM16 1.25C12.2721 1.25 9.25 4.27208 9.25 8H10.75C10.75 5.1005 13.1005 2.75 16 2.75V1.25ZM22.75 8C22.75 4.27208 19.7279 1.25 16 1.25V2.75C18.8995 2.75 21.25 5.10051 21.25 8H22.75ZM22.75 13V8H21.25V13H22.75ZM16 19.75C19.7279 19.75 22.75 16.7279 22.75 13H21.25C21.25 15.8995 18.8995 18.25 16 18.25V19.75ZM9.25 13C9.25 16.7279 12.2721 19.75 16 19.75V18.25C13.1005 18.25 10.75 15.8995 10.75 13H9.25ZM9.25 8V13H10.75V8H9.25ZM8.25 14C8.25 13.3096 7.69036 12.75 7 12.75V14.25C6.86193 14.25 6.75 14.1381 6.75 14H8.25ZM16 20.75C11.5789 20.75 8.25 17.595 8.25 14H6.75C6.75 18.5818 10.9182 22.25 16 22.25V20.75ZM23.75 14C23.75 17.595 20.4211 20.75 16 20.75V22.25C21.0818 22.25 25.25 18.5818 25.25 14H23.75ZM25 12.75C24.3096 12.75 23.75 13.3096 23.75 14H25.25C25.25 14.1381 25.1381 14.25 25 14.25V12.75ZM26.25 14C26.25 13.3096 25.6904 12.75 25 12.75V14.25C24.8619 14.25 24.75 14.1381 24.75 14H26.25ZM16.535 23.2375C21.8156 22.991 26.25 19.0738 26.25 14H24.75C24.75 18.1158 21.1117 21.5222 16.465 21.7392L16.535 23.2375ZM17.25 27V22.4883H15.75V27H17.25ZM16 28.25C16.6904 28.25 17.25 27.6904 17.25 27H15.75C15.75 26.8619 15.8619 26.75 16 26.75V28.25ZM14.75 27C14.75 27.6904 15.3096 28.25 16 28.25V26.75C16.1381 26.75 16.25 26.8619 16.25 27H14.75ZM14.75 22.4883V27H16.25V22.4883H14.75ZM5.75 14C5.75 19.0738 10.1844 22.991 15.465 23.2375L15.535 21.7392C10.8883 21.5222 7.25 18.1158 7.25 14H5.75ZM7 12.75C6.30964 12.75 5.75 13.3096 5.75 14H7.25C7.25 14.1381 7.13807 14.25 7 14.25V12.75ZM24 26.75H16V28.25H24V26.75ZM25.25 28C25.25 27.3096 24.6904 26.75 24 26.75V28.25C23.8619 28.25 23.75 28.1381 23.75 28H25.25ZM24 29.25C24.6904 29.25 25.25 28.6904 25.25 28H23.75C23.75 27.8619 23.8619 27.75 24 27.75V29.25ZM8 29.25H24V27.75H8V29.25ZM6.75 28C6.75 28.6904 7.30964 29.25 8 29.25V27.75C8.13807 27.75 8.25 27.8619 8.25 28H6.75ZM8 26.75C7.30964 26.75 6.75 27.3096 6.75 28H8.25C8.25 28.1381 8.13807 28.25 8 28.25V26.75ZM16 26.75H8V28.25H16V26.75Z" fill="black"/>
</svg>
