<svg width="32" height="32" viewBox="0 0 32 32" fill="none" xmlns="http://www.w3.org/2000/svg">
<path d="M10.1691 13.5003C9.24736 13.5003 8.50266 14.245 8.50266 15.1668C8.50266 16.0885 9.24736 16.8332 10.1691 16.8332C11.0909 16.8332 11.8356 16.0885 11.8356 15.1668C11.8356 14.245 11.0909 13.5003 10.1691 13.5003ZM16.0017 13.5003C15.0799 13.5003 14.3352 14.245 14.3352 15.1668C14.3352 16.0885 15.0799 16.8332 16.0017 16.8332C16.9234 16.8332 17.6681 16.0885 17.6681 15.1668C17.6681 14.245 16.9234 13.5003 16.0017 13.5003ZM21.8343 13.5003C20.9125 13.5003 20.1678 14.245 20.1678 15.1668C20.1678 16.0885 20.9125 16.8332 21.8343 16.8332C22.756 16.8332 23.5007 16.0885 23.5007 15.1668C23.5007 14.245 22.756 13.5003 21.8343 13.5003ZM16.0017 4.33484C8.63806 4.33484 2.67008 9.18317 2.67008 15.1668C2.67008 17.6456 3.70641 19.9162 5.42493 21.744C4.64899 23.7959 3.03462 25.5352 3.00858 25.556C2.66487 25.9206 2.57114 26.4518 2.76903 26.91C2.96692 27.3683 3.41999 27.6651 3.91992 27.6651C7.12263 27.6651 9.64835 26.3268 11.1638 25.254C12.6688 25.7279 14.2936 25.9987 16.0017 25.9987C23.3653 25.9987 29.3333 21.1504 29.3333 15.1668C29.3333 9.18317 23.3653 4.33484 16.0017 4.33484ZM16.0017 23.499C14.6112 23.499 13.2364 23.2855 11.9189 22.8689L10.7367 22.4939L9.72125 23.2126C8.97656 23.7386 7.95586 24.327 6.72685 24.7228C7.10701 24.0927 7.47675 23.3845 7.76317 22.6293L8.31518 21.166L7.24241 20.0307C6.29982 19.0256 5.16976 17.3644 5.16976 15.1668C5.16976 10.5736 10.0285 6.83451 16.0017 6.83451C21.9749 6.83451 26.8336 10.5736 26.8336 15.1668C26.8336 19.7599 21.9749 23.499 16.0017 23.499Z" fill="black"/>
</svg>
