<svg width="16" height="16" viewBox="0 0 16 16" fill="none" xmlns="http://www.w3.org/2000/svg">
<path d="M14.9757 7.00154L13.2241 5.81525L13.6254 3.73557C13.7015 3.34893 13.5785 2.95057 13.3002 2.66938C13.019 2.39111 12.6207 2.26809 12.2399 2.34424L10.1632 2.74553L8.97979 0.990993C8.53749 0.3378 7.45958 0.3378 7.01728 0.990993L5.83392 2.74553L3.76011 2.34424C3.37053 2.27102 2.9751 2.39111 2.69684 2.67231C2.41857 2.9535 2.29555 3.34893 2.3717 3.73557L2.77299 5.81525L1.02138 7.00154C0.693322 7.22415 0.5 7.59029 0.5 7.98572C0.5 8.38115 0.696251 8.74729 1.02138 8.96697L2.77299 10.1533L2.3717 12.2329C2.29555 12.6196 2.41857 13.0179 2.69684 13.2962C2.9751 13.5745 3.3676 13.6975 3.76011 13.6213L5.83392 13.2201L7.01728 14.9746C7.23697 15.3027 7.60603 15.4989 7.99854 15.4989C8.39104 15.4989 8.76011 15.3027 8.97979 14.9775L10.1632 13.223L12.2399 13.6243C12.6324 13.7034 13.0249 13.5774 13.3032 13.2991C13.5814 13.0209 13.7015 12.6225 13.6283 12.2359L13.227 10.1562L14.9786 8.9699C15.3037 8.75022 15.5 8.38115 15.5 7.98865C15.4971 7.59029 15.3037 7.22415 14.9757 7.00154ZM11.6687 9.50886L12.1842 12.1802L9.51875 11.6647L7.99854 13.9172L6.47832 11.6618L3.81576 12.1773L4.33128 9.50593L2.08172 7.98279L4.33128 6.45965L3.81576 3.7883L6.48125 4.30382L7.99854 2.05426L9.51875 4.30675L12.1842 3.79123L11.6687 6.45965L13.9183 7.98279L11.6687 9.50886ZM7.99854 4.95409C6.32015 4.95409 4.95226 6.32198 4.95226 8.00037C4.95226 9.67875 6.32015 11.0466 7.99854 11.0466C9.67692 11.0466 11.0448 9.67875 11.0448 8.00037C11.0448 6.32198 9.67692 4.95409 7.99854 4.95409ZM7.99854 9.64067C7.09344 9.64067 6.35823 8.90546 6.35823 8.00037C6.35823 7.09527 7.09344 6.36006 7.99854 6.36006C8.90363 6.36006 9.63884 7.09527 9.63884 8.00037C9.63884 8.90546 8.90363 9.64067 7.99854 9.64067Z" fill="#531944"/>
</svg>
