<svg width="32" height="32" viewBox="0 0 32 32" fill="none" xmlns="http://www.w3.org/2000/svg">
<path fill-rule="evenodd" clip-rule="evenodd" d="M16 4.81464L16.342 5.13523L24.342 12.6352C24.5434 12.8241 24.5536 13.1405 24.3648 13.342C24.1759 13.5434 23.8595 13.5536 23.658 13.3648L16.5 6.65412V19C16.5 19.2761 16.2761 19.5 16 19.5C15.7239 19.5 15.5 19.2761 15.5 19V6.65412L8.34197 13.3648C8.14051 13.5536 7.8241 13.5434 7.63523 13.342C7.44637 13.1405 7.45657 12.8241 7.65803 12.6352L15.658 5.13523L16 4.81464ZM7 20.5C7.27614 20.5 7.5 20.7239 7.5 21V26C7.5 26.2761 7.72386 26.5 8 26.5H23C23.2761 26.5 23.5 26.2761 23.5 26V21C23.5 20.7239 23.7239 20.5 24 20.5C24.2761 20.5 24.5 20.7239 24.5 21V26C24.5 26.8284 23.8284 27.5 23 27.5H8C7.17157 27.5 6.5 26.8284 6.5 26V21C6.5 20.7239 6.72386 20.5 7 20.5Z" fill="black"/>
<path d="M16.342 5.13523L15.829 5.68239L15.829 5.68239L16.342 5.13523ZM16 4.81464L16.513 4.26748L16 3.78659L15.487 4.26748L16 4.81464ZM24.342 12.6352L23.829 13.1824L23.829 13.1824L24.342 12.6352ZM23.658 13.3648L23.1451 13.9119L23.1451 13.9119L23.658 13.3648ZM16.5 6.65412L17.013 6.10697L15.75 4.92294V6.65412H16.5ZM15.5 6.65412H16.25V4.92294L14.987 6.10697L15.5 6.65412ZM8.34197 13.3648L8.85493 13.9119L8.85493 13.9119L8.34197 13.3648ZM7.63523 13.342L7.08808 13.8549L7.08808 13.8549L7.63523 13.342ZM7.65803 12.6352L8.17098 13.1824L8.17099 13.1824L7.65803 12.6352ZM15.658 5.13523L16.171 5.68239L16.171 5.68239L15.658 5.13523ZM16.8549 4.58808L16.513 4.26748L15.487 5.36179L15.829 5.68239L16.8549 4.58808ZM24.8549 12.0881L16.8549 4.58808L15.829 5.68239L23.829 13.1824L24.8549 12.0881ZM24.9119 13.8549C25.3841 13.3513 25.3586 12.5602 24.8549 12.0881L23.829 13.1824C23.7283 13.088 23.7232 12.9297 23.8176 12.829L24.9119 13.8549ZM23.1451 13.9119C23.6487 14.3841 24.4398 14.3586 24.9119 13.8549L23.8176 12.829C23.912 12.7283 24.0703 12.7232 24.171 12.8176L23.1451 13.9119ZM15.987 7.20127L23.1451 13.9119L24.171 12.8176L17.013 6.10697L15.987 7.20127ZM15.75 6.65412V19H17.25V6.65412H15.75ZM15.75 19C15.75 18.8619 15.8619 18.75 16 18.75V20.25C16.6904 20.25 17.25 19.6904 17.25 19H15.75ZM16 18.75C16.1381 18.75 16.25 18.8619 16.25 19H14.75C14.75 19.6904 15.3096 20.25 16 20.25V18.75ZM16.25 19V6.65412H14.75V19H16.25ZM8.85493 13.9119L16.013 7.20127L14.987 6.10697L7.82901 12.8176L8.85493 13.9119ZM7.08808 13.8549C7.56024 14.3586 8.35129 14.3841 8.85493 13.9119L7.82902 12.8176C7.92974 12.7232 8.08795 12.7283 8.18238 12.829L7.08808 13.8549ZM7.14507 12.0881C6.64143 12.5602 6.61592 13.3513 7.08808 13.8549L8.18238 12.829C8.27682 12.9297 8.27171 13.088 8.17098 13.1824L7.14507 12.0881ZM15.1451 4.58808L7.14507 12.0881L8.17099 13.1824L16.171 5.68239L15.1451 4.58808ZM15.487 4.26748L15.1451 4.58808L16.171 5.68239L16.513 5.36179L15.487 4.26748ZM8.25 21C8.25 20.3096 7.69036 19.75 7 19.75V21.25C6.86193 21.25 6.75 21.1381 6.75 21H8.25ZM8.25 26V21H6.75V26H8.25ZM8 25.75C8.13807 25.75 8.25 25.8619 8.25 26H6.75C6.75 26.6904 7.30964 27.25 8 27.25V25.75ZM23 25.75H8V27.25H23V25.75ZM22.75 26C22.75 25.8619 22.8619 25.75 23 25.75V27.25C23.6904 27.25 24.25 26.6904 24.25 26H22.75ZM22.75 21V26H24.25V21H22.75ZM24 19.75C23.3096 19.75 22.75 20.3096 22.75 21H24.25C24.25 21.1381 24.1381 21.25 24 21.25V19.75ZM25.25 21C25.25 20.3096 24.6904 19.75 24 19.75V21.25C23.8619 21.25 23.75 21.1381 23.75 21H25.25ZM25.25 26V21H23.75V26H25.25ZM23 28.25C24.2426 28.25 25.25 27.2426 25.25 26H23.75C23.75 26.4142 23.4142 26.75 23 26.75V28.25ZM8 28.25H23V26.75H8V28.25ZM5.75 26C5.75 27.2426 6.75736 28.25 8 28.25V26.75C7.58579 26.75 7.25 26.4142 7.25 26H5.75ZM5.75 21V26H7.25V21H5.75ZM7 19.75C6.30964 19.75 5.75 20.3096 5.75 21H7.25C7.25 21.1381 7.13807 21.25 7 21.25V19.75Z" fill="black"/>
</svg>
