<svg width="32" height="32" viewBox="0 0 32 32" fill="none" xmlns="http://www.w3.org/2000/svg">
<path d="M26.1667 4H7.16667C5.42005 4 4 5.42005 4 7.16667V21.4167C4 23.1633 5.42005 24.5833 7.16667 24.5833H11.9167V28.7396C11.9167 29.0909 12.2036 29.3333 12.5104 29.3333C12.6292 29.3333 12.7529 29.2987 12.8617 29.2146L19.0417 24.5833H26.1667C27.9133 24.5833 29.3333 23.1633 29.3333 21.4167V7.16667C29.3333 5.42005 27.9133 4 26.1667 4ZM26.9583 21.4167C26.9583 21.8521 26.6021 22.2083 26.1667 22.2083H18.25L14.2917 25.1771V22.2083H7.16667C6.73125 22.2083 6.375 21.8521 6.375 21.4167V7.16667C6.375 6.73125 6.73125 6.375 7.16667 6.375H26.1667C26.6021 6.375 26.9583 6.73125 26.9583 7.16667V21.4167Z" fill="black"/>
<path d="M15.1409 13.3314H13.6422L14.7019 12.2716C14.9445 12.0291 14.9445 11.6359 14.7019 11.3933C14.4594 11.1508 14.0662 11.1508 13.8237 11.3933L12.7639 12.4531V10.9543C12.7639 10.6114 12.4859 10.3333 12.1429 10.3333C11.8 10.3333 11.5219 10.6114 11.5219 10.9543V12.4531L10.4621 11.3933C10.2196 11.1508 9.8264 11.1508 9.58388 11.3933C9.34136 11.6359 9.34136 12.0291 9.58388 12.2716L10.6437 13.3314H9.14488C8.80192 13.3314 8.52387 13.6094 8.52387 13.9524C8.52387 14.2953 8.80192 14.5734 9.14488 14.5734H10.6437L9.58388 15.6332C9.34136 15.8757 9.34136 16.2689 9.58388 16.5114C9.8264 16.7539 10.2196 16.7539 10.4621 16.5114L11.5219 15.4516V16.9504C11.5219 17.2934 11.8 17.5714 12.1429 17.5714C12.4859 17.5714 12.7639 17.2934 12.7639 16.9504V15.4516L13.8237 16.5114C14.0662 16.7539 14.4594 16.7539 14.7019 16.5114C14.9445 16.2689 14.9445 15.8757 14.7019 15.6332L13.6422 14.5734H15.1409C15.4839 14.5734 15.762 14.2953 15.762 13.9524C15.762 13.6094 15.4839 13.3314 15.1409 13.3314Z" fill="black"/>
<path d="M23.5058 12.8747H24.1796C24.4514 12.8747 24.6819 12.6749 24.7204 12.4057C24.7674 12.0766 24.5118 11.7821 24.1793 11.7823L23.671 11.7826L23.7326 11.3521C23.782 11.0068 23.5142 10.6979 23.1654 10.6979C22.8803 10.6979 22.6386 10.9075 22.5982 11.1898L22.5132 11.7836L20.487 11.7855L20.5524 11.3564C20.6051 11.01 20.337 10.6979 19.9867 10.6979C19.7039 10.6979 19.4635 10.9045 19.4209 11.184L19.3291 11.7865L18.7136 11.7868C18.4458 11.787 18.218 11.982 18.1765 12.2466C18.1248 12.5765 18.3799 12.8748 18.7139 12.8748H19.1644L18.8743 15.0292L18.2014 15.0296C17.9294 15.0297 17.6989 15.2298 17.6605 15.499C17.6134 15.8284 17.869 16.123 18.2017 16.123H18.7096L18.6477 16.5521C18.5978 16.8975 18.8657 17.2068 19.2147 17.2068C19.4995 17.2068 19.7411 16.9977 19.7818 16.7158L19.8673 16.123H21.8933L21.833 16.5542C21.7848 16.899 22.0526 17.2068 22.4008 17.2068C22.6867 17.2068 22.9289 16.9961 22.9685 16.7129L23.051 16.123H23.6619C23.9326 16.123 24.1629 15.9257 24.2044 15.6582C24.256 15.3253 23.9985 15.0248 23.6616 15.025L23.2162 15.0252L23.5058 12.8747ZM22.0584 15.0263L20.0322 15.0281L20.3221 12.8747H22.3481L22.0584 15.0263Z" fill="black"/>
</svg>
