<svg width="24" height="24" viewBox="0 0 24 24" fill="none" xmlns="http://www.w3.org/2000/svg">
<path d="M19.5 2H4.5C3.12109 2 2 3.12109 2 4.5V15.75C2 17.1289 3.12109 18.25 4.5 18.25H8.25V21.5312C8.25 21.8086 8.47656 22 8.71875 22C8.8125 22 8.91016 21.9727 8.99609 21.9062L13.875 18.25H19.5C20.8789 18.25 22 17.1289 22 15.75V4.5C22 3.12109 20.8789 2 19.5 2ZM20.125 15.75C20.125 16.0938 19.8438 16.375 19.5 16.375H13.25L10.125 18.7188V16.375H4.5C4.15625 16.375 3.875 16.0938 3.875 15.75V4.5C3.875 4.15625 4.15625 3.875 4.5 3.875H19.5C19.8438 3.875 20.125 4.15625 20.125 4.5V15.75Z" fill="black"/>
<path fill-rule="evenodd" clip-rule="evenodd" d="M10.3453 5.50809C10.617 5.55756 10.7971 5.81791 10.7477 6.08958L10.5051 7.42164L13.5231 7.42164L13.7983 5.91042C13.8478 5.63875 14.1082 5.45862 14.3798 5.50809C14.6515 5.55756 14.8316 5.81791 14.7822 6.08958L14.5396 7.42164L15.5 7.42164C15.7761 7.42164 16 7.64549 16 7.92164C16 8.19778 15.7761 8.42164 15.5 8.42164L14.3575 8.42164L13.9705 10.5466H15.5C15.7761 10.5466 16 10.7705 16 11.0466C16 11.3228 15.7761 11.5466 15.5 11.5466H13.7884L13.4526 13.3905C13.4032 13.6621 13.1428 13.8423 12.8711 13.7928C12.5995 13.7433 12.4193 13.483 12.4688 13.2113L12.772 11.5466L9.7539 11.5466L9.41812 13.3905C9.36864 13.6621 9.1083 13.8423 8.83663 13.7928C8.56495 13.7433 8.38482 13.483 8.4343 13.2113L8.73745 11.5466H8C7.72386 11.5466 7.5 11.3228 7.5 11.0466C7.5 10.7705 7.72386 10.5466 8 10.5466H8.91956L9.30653 8.42164L8 8.42164C7.72386 8.42164 7.5 8.19778 7.5 7.92164C7.5 7.6455 7.72386 7.42164 8 7.42164L9.48864 7.42164L9.76384 5.91042C9.81332 5.63875 10.0737 5.45862 10.3453 5.50809ZM10.323 8.42164L9.936 10.5466H12.9541L13.341 8.42164H10.323Z" fill="black"/>
</svg>
